# xmcd
#
# Track frame offsets: 
#        150
#        11615
#        28085
#        40630
#        54792
#        83007
#        102207
#        117152
#        136467
#        157990
#        178670
#        203855
#        250232
#        268605
#        285060
#        298655
#        315865
#        334235
#
# Disc length: 4759 seconds
#
# Revision: 8
# Processed by: cddbd v1.5.2PL0 Copyright (c) Steve Scherf et al.
# Submitted via: ExactAudioCopy v1.0b3
#
DISCID=e9129512
DTITLE=STEVIE RAY VAUGHAN and DOUBLE TROUBLE - S. R. VAUGHAN (BOX SET)
DYEAR=2012
DGENRE=Blues
TTITLE0=Thunderbird - Paul Ray and The Cobras Feat. Stevie Ray Vaughan (
TTITLE0=1977)
TTITLE1=I'm Cryin' (1979)
TTITLE2=You're Gonna Miss Me Baby (1979)
TTITLE3=They Call Me Guitar Hurricane (Live In Austin) (1980)
TTITLE4=All Your Love I Miss Loving (Live In Austin) (1980)
TTITLE5=Come On (Pt. III) (KUT-FM Twine Time Radio Show) (1981)
TTITLE6=Letter To My Girlfriend (KUT-FM Twine Time Radio Show) (1981)
TTITLE7=Lenny (KUT-FM Twine Time Radio Show) (1981)
TTITLE8=Don't Lose Your Cool (Live At Fitzgerald’S Club Houston) (1981
TTITLE8=)
TTITLE9=Crosscut Saw (Live At Fitzgerald’S Club Houston) (1981)
TTITLE10=Manic Depression (Live At Fitzgerald’S Club Houston) (1981)
TTITLE11=Texas Flood (Live At Montreux Int’L Jazz Festival) (1982)
TTITLE12=Collins' Shuffle (Live At Montreux Int’L Jazz Festival) (1982
TTITLE12=)
TTITLE13=Pride And Joy (1982)
TTITLE14=Love Struck Baby (Live On Austin City Limits) (1983)
TTITLE15=Hug You, Squeeze You (Live At The El Mocambo Toronto) (1983)
TTITLE16=Don't Stop By The Creek, Son - Johnny Copeland With Stevie Ra
TTITLE16=y Vaughan (1982)
TTITLE17=Ask Me No Questions - Albert King With Stevie Ray Vaughan (19
TTITLE17=83)
EXTD=YEAR: 2000
EXTT0=
EXTT1=
EXTT2=
EXTT3=
EXTT4=
EXTT5=
EXTT6=
EXTT7=
EXTT8=
EXTT9=
EXTT10=
EXTT11=
EXTT12=
EXTT13=
EXTT14=
EXTT15=
EXTT16=
EXTT17=
PLAYORDER=
